<svg xmlns="http://www.w3.org/2000/svg" xml:space="preserve" style="fill-rule:evenodd;clip-rule:evenodd;stroke-linejoin:round;stroke-miterlimit:2" viewBox="0 0 64 64"><path d="M7 12h5v28H7z" style="fill:#505050" transform="matrix(1.2 0 0 .28571 1.6 2.571)"/><path d="M7 12h5v28H7z" style="fill:#505050" transform="matrix(1.2 0 0 .28571 1.6 41.571)"/><path d="M7 12h5v28H7z" style="fill:url(#a)" transform="matrix(1.2 0 0 2.21429 -2.4 -24.571)"/><path d="M7 12h5v28H7z" style="fill:url(#b)" transform="matrix(1.2 0 0 2.21429 -2.4 -24.571)"/><path d="M56 9.254v41.492C56 52.542 54.165 54 51.905 54h-34.81C14.835 54 13 52.542 13 50.746V9.254C13 7.458 14.835 6 17.095 6h34.81C54.165 6 56 7.458 56 9.254Z" style="fill:#ddd" transform="matrix(.97674 0 0 1.22917 1.302 -7.375)"/><path d="M14 41h42v6H14z"/><path d="M16 32h42v18H16z" style="fill:#616161" transform="matrix(1 0 0 .44444 -2 32.778)"/><path d="M16 4h42v28H16z" style="fill:#0093ff" transform="matrix(1 0 0 .96429 -2 10.143)"/><ellipse cx="36" cy="28" rx="8.101" ry="14" style="fill:url(#c)" transform="matrix(2.18323 0 0 1.69007 -43.596 -17.822)"/><path d="M.193-.211.167-.352a.523.523 0 0 0 .124-.05.164.164 0 0 0 .037-.031.11.11 0 0 0 .03-.078.093.093 0 0 0-.015-.052A.117.117 0 0 0 .3-.599a.133.133 0 0 0-.138.014.23.23 0 0 0-.065.078L.022-.57a.337.337 0 0 1 .103-.103.244.244 0 0 1 .237-.01c.033.017.06.041.08.071.019.03.029.064.029.101a.16.16 0 0 1-.013.064.246.246 0 0 1-.039.06.312.312 0 0 1-.132.086l-.017.09H.193Zm-.035.147c0-.022.006-.04.019-.054a.064.064 0 0 1 .05-.021c.022 0 .039.006.051.019.012.013.018.032.018.056 0 .022-.006.04-.019.054a.064.064 0 0 1-.05.021C.205.011.188.005.176-.009.164-.022.158-.04.158-.064Z" style="fill:#fff;fill-rule:nonzero" transform="translate(22.66 46.97)scale(50.057)"/><path d="M56 9.254v41.492C56 52.542 54.165 54 51.905 54h-34.81C14.835 54 13 52.542 13 50.746V9.254C13 7.458 14.835 6 17.095 6h34.81C54.165 6 56 7.458 56 9.254Z" style="fill:url(#d)" transform="matrix(.97674 0 0 1.22917 1.302 -7.375)"/><defs><linearGradient id="a" x1="0" x2="1" y1="0" y2="0" gradientTransform="matrix(5 0 0 28 7 26)" gradientUnits="userSpaceOnUse"><stop offset="0" style="stop-color:#e3e3e3;stop-opacity:1"/><stop offset="1" style="stop-color:#717171;stop-opacity:1"/></linearGradient><linearGradient id="b" x1="0" x2="1" y1="0" y2="0" gradientTransform="matrix(5 28 -533.889 28 7 12)" gradientUnits="userSpaceOnUse"><stop offset="0" style="stop-color:white;stop-opacity:.3"/><stop offset="1" style="stop-color:white;stop-opacity:0"/></linearGradient><linearGradient id="d" x1="0" x2="1" y1="0" y2="0" gradientTransform="matrix(43 28.4746 -50.3373 48 13 15.763)" gradientUnits="userSpaceOnUse"><stop offset="0" style="stop-color:white;stop-opacity:.4"/><stop offset="1" style="stop-color:white;stop-opacity:0"/></linearGradient><radialGradient id="c" cx="0" cy="0" r="1" gradientTransform="matrix(8.10139 0 0 14 36 28)" gradientUnits="userSpaceOnUse"><stop offset="0" style="stop-color:black;stop-opacity:.2"/><stop offset=".5" style="stop-color:black;stop-opacity:.15"/><stop offset="1" style="stop-color:black;stop-opacity:0"/></radialGradient></defs></svg>